
      <svg data-logo="logo" xmlns="http://www.w3.org/2000/svg" viewBox="0 0 136 43.8">
        <g id="logogram" transform="translate(0, 21.9) rotate(0)"></g>
        <g id="logotype" transform="translate(0, 0.9999999999999986)"><path fill="#3d3846" d="M1.26 26.39L1.26 26.39L8.65 26.39Q8.82 27.48 9.66 28.28Q10.50 29.09 11.92 29.52Q13.34 29.96 15.26 29.96L15.26 29.96Q17.92 29.96 19.46 29.28Q21.00 28.59 21.00 27.27L21.00 27.27Q21.00 26.25 20.13 25.69Q19.25 25.13 16.77 24.88L16.77 24.88L11.87 24.43Q6.44 23.94 3.99 21.96Q1.54 19.98 1.54 16.63L1.54 16.63Q1.54 13.89 3.13 12.00Q4.73 10.11 7.61 9.15Q10.50 8.19 14.35 8.19L14.35 8.19Q18.13 8.19 21.07 9.26Q24.01 10.32 25.74 12.28Q27.48 14.24 27.62 16.83L27.62 16.83L20.27 16.83Q20.13 15.89 19.37 15.21Q18.62 14.52 17.33 14.16Q16.03 13.79 14.21 13.79L14.21 13.79Q11.76 13.79 10.33 14.44Q8.89 15.08 8.89 16.34L8.89 16.34Q8.89 17.25 9.75 17.81Q10.61 18.38 12.85 18.58L12.85 18.58L18.06 19.11Q21.81 19.46 24.05 20.32Q26.29 21.17 27.30 22.68Q28.32 24.18 28.32 26.42L28.32 26.42Q28.32 29.19 26.67 31.24Q25.03 33.28 22.05 34.42Q19.08 35.56 15.12 35.56L15.12 35.56Q11.06 35.56 7.96 34.42Q4.87 33.28 3.12 31.20Q1.37 29.12 1.26 26.39ZM38.64 8.05L38.64 29.29L36.68 28.63L47.74 15.01L55.27 15.01L37.87 35L31.47 35L31.47 8.05L38.64 8.05ZM47.74 35L42.04 25.23L47.43 21.45L55.79 35L47.74 35ZM57.47 35L57.47 14.70L61.08 15.40L64.65 14.70L64.65 35L57.47 35ZM61.04 13.05L61.04 13.05Q59.19 13.05 58.03 12.13Q56.88 11.20 56.88 9.59L56.88 9.59Q56.88 8.01 58.03 7.07Q59.19 6.12 61.04 6.12L61.04 6.12Q62.97 6.12 64.10 7.07Q65.24 8.01 65.24 9.59L65.24 9.59Q65.24 11.20 64.10 12.13Q62.97 13.05 61.04 13.05ZM68.56 40.77L68.56 15.01L75.74 15.01L75.74 20.75L75.43 21.59L75.43 27.20L75.74 28.84L75.74 40.77L68.56 40.77ZM73.47 25.02L73.47 25.02Q73.92 21.77 75.37 19.41Q76.83 17.04 79.06 15.73Q81.31 14.42 84.14 14.42L84.14 14.42Q87.08 14.42 89.30 15.75Q91.53 17.08 92.77 19.46Q94.01 21.84 94.01 25.02L94.01 25.02Q94.01 28.14 92.77 30.54Q91.53 32.94 89.30 34.25Q87.08 35.56 84.14 35.56L84.14 35.56Q81.31 35.56 79.06 34.25Q76.83 32.94 75.39 30.55Q73.95 28.17 73.47 25.02ZM86.80 25.02L86.80 25.02Q86.80 23.52 86.19 22.36Q85.58 21.21 84.47 20.54Q83.37 19.88 81.97 19.88L81.97 19.88Q80.54 19.88 79.24 20.54Q77.95 21.21 76.97 22.36Q75.98 23.52 75.46 25.02L75.46 25.02Q75.98 26.49 76.97 27.65Q77.95 28.80 79.24 29.45Q80.54 30.10 81.97 30.10L81.97 30.10Q83.37 30.10 84.47 29.45Q85.58 28.80 86.19 27.65Q86.80 26.49 86.80 25.02ZM105.77 35L105.77 14.70L109.38 15.40L112.95 14.70L112.95 35L105.77 35ZM109.34 13.05L109.34 13.05Q107.49 13.05 106.33 12.13Q105.18 11.20 105.18 9.59L105.18 9.59Q105.18 8.01 106.33 7.07Q107.49 6.12 109.34 6.12L109.34 6.12Q111.27 6.12 112.40 7.07Q113.54 8.01 113.54 9.59L113.54 9.59Q113.54 11.20 112.40 12.13Q111.27 13.05 109.34 13.05ZM119.18 20.30L115.12 20.30L115.12 17.18L119.18 15.54L122.26 9.62L126.32 9.62L126.32 15.01L134.72 15.01L134.72 20.30L126.32 20.30L126.32 26.18Q126.32 28.35 127.19 29.23Q128.07 30.10 130.38 30.10L130.38 30.10Q131.85 30.10 132.98 29.84Q134.12 29.57 135.07 29.16L135.07 29.16L135.07 34.55Q134.02 34.93 132.30 35.24Q130.59 35.56 128.77 35.56L128.77 35.56Q125.44 35.56 123.32 34.55Q121.21 33.53 120.19 31.62Q119.18 29.71 119.18 27.16L119.18 27.16L119.18 20.30Z"/></g>
        
      </svg>
    